<svg width="74" height="54" viewBox="0 0 74 54" fill="none" xmlns="http://www.w3.org/2000/svg">
<g clip-path="url(#clip0_1_6)">
<path d="M42.1311 16.7378L40.7506 15.7799C40.5349 15.621 40.2589 15.5461 39.9826 15.5712C39.7064 15.5963 39.4522 15.7195 39.2753 15.914L20.1693 35.8582L20.4644 36.1552L25.1961 32.1893C25.0384 32.1316 24.9079 32.0256 24.8273 31.8895C24.7467 31.7535 24.7211 31.5961 24.7549 31.4446C24.7888 31.2932 24.8799 31.1573 25.0124 31.0606C25.145 30.9639 25.3107 30.9125 25.4806 30.9153C25.6339 30.9152 25.7831 30.9599 25.9064 31.0427C26.0297 31.1254 26.1205 31.2419 26.1656 31.3751L32.4043 26.116C32.4998 26.046 32.6188 26.0079 32.7415 26.0079C32.8642 26.0079 32.9832 26.046 33.0787 26.116L33.3949 26.3267C33.5018 26.3964 33.6336 26.4272 33.7643 26.413C33.8949 26.3988 34.015 26.3407 34.101 26.2501L42.2576 17.9352C42.3443 17.8527 42.4104 17.7541 42.4515 17.6463C42.4926 17.5384 42.5076 17.4238 42.4956 17.3102C42.4836 17.1966 42.4448 17.0867 42.382 16.9879C42.3191 16.8892 42.2335 16.8038 42.1311 16.7378Z" fill="#303030"/>
<path d="M51.1098 22.3513C46.9287 25.0556 42.2448 27.0513 37.2835 28.2426C32.3594 29.381 27.3208 30.0614 22.2454 30.2735C22.3476 30.9538 22.5313 31.6219 22.7934 32.266C25.6598 34.6225 47.2422 30.5992 51.4575 25.9436C52.3533 24.9761 51.1098 22.3513 51.1098 22.3513ZM25.4806 32.1893C25.3389 32.1893 25.2003 32.1511 25.0825 32.0795C24.9647 32.008 24.8728 31.9062 24.8186 31.7872C24.7643 31.6682 24.7501 31.5372 24.7778 31.4109C24.8054 31.2845 24.8737 31.1684 24.9739 31.0773C25.0741 30.9862 25.2018 30.9242 25.3408 30.8991C25.4798 30.8739 25.6239 30.8868 25.7549 30.9361C25.8858 30.9854 25.9977 31.0689 26.0765 31.176C26.1552 31.2832 26.1972 31.4091 26.1972 31.5379C26.1986 31.6238 26.1811 31.7091 26.1456 31.7887C26.1101 31.8683 26.0573 31.9407 25.9905 32.0014C25.9237 32.0622 25.8441 32.1101 25.7565 32.1424C25.6689 32.1747 25.5751 32.1906 25.4806 32.1893Z" fill="#303030"/>
<path d="M5.08906 20.9719L5.25768 20.3109L7.99764 20.8761C8.22369 21.2557 8.36346 21.6727 8.40863 22.1023C8.46093 22.5573 8.42887 23.0171 8.31379 23.4626C8.17737 24.0807 7.86486 24.6554 7.40749 25.1294C6.97235 25.5768 6.41128 25.908 5.78459 26.0873C5.13869 26.2683 4.45172 26.2915 3.79285 26.1544C3.13254 26.0247 2.5239 25.7332 2.03296 25.3114C1.54953 24.9062 1.2024 24.3847 1.03182 23.8074C0.842585 23.1804 0.842585 22.5186 1.03182 21.8915C1.14508 21.4222 1.34842 20.9748 1.6325 20.5696C1.90137 20.2011 2.26253 19.8958 2.68633 19.6787L3.06571 20.2056C2.70246 20.4083 2.39065 20.6788 2.15086 20.9991C1.91107 21.3195 1.74877 21.6824 1.67465 22.064C1.54396 22.5595 1.55485 23.0773 1.70627 23.5679C1.84787 24.0338 2.12875 24.4549 2.51772 24.7845C2.91752 25.1358 3.41772 25.3781 3.96147 25.4838C4.48872 25.6184 5.04657 25.6184 5.57383 25.4838C6.07891 25.3322 6.53257 25.065 6.89111 24.7079C7.25958 24.3221 7.5135 23.8572 7.6288 23.3572C7.80218 22.7506 7.75788 22.1096 7.50234 21.5275L5.08906 20.9719Z" fill="#303030"/>
<path d="M11.0537 14.9463L8.59823 17.9255L9.65206 19.6402L9.1673 20.2341L5.26813 13.7681L5.72127 13.2029L13.6566 14.7547L13.1613 15.3487L11.0537 14.9463ZM10.3581 14.7931L6.14281 13.9309L8.25047 17.3699L10.3581 14.7931Z" fill="#303030"/>
<path d="M10.3582 8.76774L10.9905 8.33667L15.0055 13.2221L18.3146 10.971L18.715 11.4595L14.7842 14.1322L10.3582 8.76774Z" fill="#303030"/>
<path d="M16.9973 4.77322L17.7033 4.48584L20.4854 10.0227L24.2476 8.47086L24.5216 9.02646L20.0534 10.8753L16.9973 4.77322Z" fill="#303030"/>
<path d="M30.8868 6.97652L31.0448 7.58002L25.9654 8.66248L24.2792 2.12936L29.2112 1.08521L29.3587 1.67913L25.1434 2.57001L25.7441 4.88821L29.4535 4.09313L29.6116 4.68705L25.8916 5.47256L26.5239 7.89614L30.8868 6.97652Z" fill="#303030"/>
<path d="M38.1266 7.21579L36.3667 5.10833C36.1701 5.11821 35.9731 5.11821 35.7765 5.10833L33.7953 5.1658L33.8691 7.29242H33.0892L32.8469 0.586865L35.6501 0.577286C36.4426 0.51075 37.2352 0.704455 37.8842 1.12331C38.1577 1.32351 38.3776 1.57757 38.5273 1.86632C38.677 2.15506 38.7525 2.47094 38.7483 2.79012C38.7791 3.26352 38.6424 3.73346 38.3584 4.13123C38.0556 4.51302 37.6277 4.79802 37.136 4.94548L38.9802 7.18705L38.1266 7.21579ZM37.3889 4.06418C37.5783 3.90645 37.7253 3.71124 37.8185 3.49365C37.9116 3.27606 37.9486 3.0419 37.9263 2.80928C37.9318 2.57542 37.8786 2.3435 37.7709 2.13107C37.6632 1.91864 37.5037 1.73126 37.3046 1.58312C36.8189 1.28374 36.2348 1.14509 35.6501 1.19037L33.6478 1.25742L33.7742 4.6102L35.7344 4.55272C36.3321 4.57283 36.9183 4.39973 37.3889 4.06418Z" fill="#303030"/>
<path d="M43.7014 5.43413L43.322 7.7236L42.5527 7.61823L42.9426 5.36708L40.7612 0.577393L41.5832 0.692345L43.4484 4.77316L46.6099 1.39164L47.3476 1.53533L43.7014 5.43413Z" fill="#303030"/>
<path d="M54.1237 5.03191L55.0406 6.11438L54.6401 6.40176L53.7233 5.29055L53.1437 6.54545L52.7011 6.37302L53.2912 5.11812L51.7737 5.30013V4.84032L53.2701 4.68705L52.3428 3.60459L52.7537 3.3172L53.5652 4.40925L54.1343 3.14478L54.5874 3.3172L54.05 4.60084L55.5675 4.40925V4.87864L54.1237 5.03191Z" fill="#303030"/>
<path d="M57.6435 12.7528C57.3947 12.404 57.2394 12.0069 57.1904 11.5936L57.8121 11.3446C57.8588 11.7243 57.9954 12.0903 58.2126 12.4175C58.448 12.7843 58.7551 13.1089 59.1189 13.3754C59.4945 13.7023 59.9738 13.9135 60.4889 13.9789C60.675 13.9946 60.8624 13.9688 61.0351 13.9037C61.2077 13.8386 61.3602 13.7361 61.4795 13.6053C61.5669 13.5177 61.6335 13.4146 61.6752 13.3025C61.7169 13.1905 61.7328 13.0718 61.7218 12.9539C61.687 12.7204 61.601 12.4957 61.4689 12.2929C61.2709 11.9989 61.0563 11.7144 60.8261 11.4404C60.5455 11.1062 60.2919 10.7541 60.0673 10.3866C59.8956 10.1116 59.8015 9.8023 59.7933 9.48619C59.7926 9.1312 59.9394 8.78906 60.2043 8.52825C60.434 8.27548 60.737 8.08631 61.079 7.98223C61.4611 7.8819 61.8667 7.8819 62.2488 7.98223C62.7411 8.12858 63.1961 8.3631 63.5871 8.67194C63.9116 8.91724 64.1986 9.20073 64.4407 9.51493C64.6646 9.80629 64.8321 10.1303 64.936 10.4729L64.3353 10.7602C64.2306 10.4409 64.0743 10.1375 63.8717 9.85978C63.6698 9.61182 63.4323 9.38952 63.1656 9.19881C62.7955 8.87334 62.3177 8.66795 61.8061 8.61447C61.6182 8.60018 61.4292 8.62859 61.2563 8.69715C61.0834 8.7657 60.9319 8.87226 60.8155 9.00722C60.7259 9.09352 60.6578 9.1964 60.616 9.30883C60.5742 9.42126 60.5596 9.54058 60.5732 9.65862C60.5978 9.90018 60.6845 10.1331 60.8261 10.3388C60.9736 10.5591 61.1844 10.8465 61.4689 11.1913C61.751 11.5178 62.0047 11.8637 62.2277 12.2259C62.403 12.5 62.5008 12.8094 62.5122 13.1263C62.5129 13.4813 62.3662 13.8235 62.1012 14.0843C61.8707 14.3405 61.5631 14.5303 61.216 14.6303C60.8346 14.735 60.4277 14.735 60.0463 14.6303C59.5506 14.4844 59.0919 14.2499 58.6973 13.9406C58.272 13.6041 57.9152 13.202 57.6435 12.7528Z" fill="#303030"/>
<path d="M68.245 14.1514L66.7591 12.2355L67.3071 11.8811L70.7321 16.3259L70.1841 16.6804L68.6982 14.7645L63.1972 18.261L62.7546 17.6766L68.245 14.1514Z" fill="#303030"/>
<path d="M65.8845 22.0256C66.0726 21.4466 66.4381 20.9283 66.9383 20.5312C67.4276 20.1328 68.0237 19.8586 68.6666 19.7361C69.3219 19.5993 70.0054 19.6225 70.6478 19.8032C71.2678 19.9895 71.8236 20.3197 72.2601 20.7611C72.7141 21.2358 73.023 21.8106 73.1559 22.4279C73.3305 23.034 73.3305 23.6707 73.1559 24.2767C72.9626 24.8535 72.5979 25.3706 72.1021 25.7711C71.5992 26.1802 70.9885 26.464 70.3292 26.5949C69.6699 26.7259 68.9846 26.6995 68.3399 26.5183C67.7151 26.341 67.1569 26.0094 66.7275 25.5604C66.2756 25.0881 65.9669 24.5169 65.8318 23.9031C65.6708 23.2836 65.6889 22.6368 65.8845 22.0256ZM67.265 25.0718C67.6168 25.4361 68.0728 25.7046 68.5823 25.8477C69.1074 25.9862 69.6624 26.0026 70.1963 25.8955C70.7303 25.7884 71.2261 25.5612 71.6384 25.2347C72.0273 24.9093 72.3146 24.4962 72.4709 24.0372C72.6178 23.5526 72.6323 23.0427 72.5129 22.5518C72.3935 22.061 72.1439 21.6041 71.7859 21.2209C71.4186 20.8549 70.9487 20.5867 70.4265 20.445C69.8947 20.3166 69.3353 20.3166 68.8036 20.445C68.267 20.5386 67.7703 20.7676 67.3704 21.106C66.9778 21.4324 66.6901 21.8496 66.5378 22.313C66.3948 22.7993 66.3948 23.3114 66.5378 23.7978C66.6533 24.273 66.904 24.7124 67.265 25.0718Z" fill="#303030"/>
<path d="M65.0836 33.1473L67.813 32.1894C67.813 32.017 67.8762 31.8446 67.9289 31.6625L68.4453 29.9287L66.2112 29.4018L66.4114 28.7217L73.5353 30.4555L72.8187 32.8791C72.6572 33.5863 72.2238 34.218 71.5962 34.6609C71.3078 34.8429 70.977 34.9619 70.6297 35.0084C70.2823 35.0549 69.9278 35.0278 69.594 34.9291C69.0854 34.8288 68.6297 34.5739 68.3021 34.2064C67.9744 33.8389 67.7945 33.3809 67.7919 32.9079L64.8833 33.8658L65.0836 33.1473ZM68.6139 33.4156C68.7373 33.6192 68.9048 33.7979 69.1062 33.9412C69.3076 34.0844 69.5388 34.1892 69.7859 34.2491C70.033 34.3091 70.2908 34.323 70.544 34.2901C70.7972 34.2571 71.0404 34.178 71.259 34.0574C71.7241 33.7178 72.0416 33.2392 72.1548 32.7067L72.6606 30.9824L69.0881 30.1107L68.5823 31.835C68.3879 32.3488 68.399 32.9085 68.6139 33.4156Z" fill="#303030"/>
<path d="M61.3003 39.3164L60.7628 38.9428L63.9243 35.1589L69.8047 39.211L66.7486 42.8799L66.2111 42.5063L68.793 39.4122L66.6853 37.9657L64.3775 40.7341L63.8505 40.3701L66.2111 37.6017L64.0297 36.0977L61.3003 39.3164Z" fill="#303030"/>
<path d="M58.8344 46.9512L57.3274 47.0279V46.568L58.8344 46.5585L58.0229 45.4185L58.4339 45.179L59.2348 46.3286L59.8882 45.0449L60.3413 45.2653L59.6247 46.4722L61.1317 46.3956V46.865H59.6037L60.4151 48.0049L60.0041 48.2444L59.2032 47.0949L58.5077 48.3402L58.0651 48.1103L58.8344 46.9512Z" fill="#303030"/>
<path d="M45.1345 46.1847L46.4097 46.8266C46.6234 46.4533 46.9218 46.1254 47.2851 45.8645C47.6484 45.6036 48.0683 45.4157 48.5173 45.313C48.9362 45.1943 49.3767 45.152 49.8135 45.1885C50.1926 45.2149 50.5567 45.3341 50.8674 45.5334C51.1482 45.7257 51.3548 45.994 51.4575 46.2997C51.5845 46.6779 51.5622 47.0845 51.3943 47.4492C51.1298 47.9448 50.7733 48.3953 50.3405 48.7808C50.6879 48.9505 51.0101 49.1597 51.2994 49.4034C51.4982 49.5901 51.6461 49.8165 51.7315 50.0644C51.7855 50.2577 51.7889 50.4598 51.7413 50.6544C51.6937 50.8491 51.5965 51.0309 51.4575 51.1852C51.1762 51.5536 50.7564 51.816 50.2772 51.9228C49.8564 52.0687 49.3913 52.0687 48.9705 51.9228C48.7834 51.8496 48.6174 51.738 48.4858 51.5967C48.3541 51.4555 48.2603 51.2883 48.2117 51.1085C48.1012 50.7923 48.1276 50.4497 48.2855 50.1506C48.5274 49.7151 48.844 49.3174 49.2234 48.9723L46.6837 47.6887C46.5868 48.1398 46.5654 48.6017 46.6204 49.0586H45.9776C45.9343 48.4959 46.0058 47.9308 46.1884 47.3917L44.8605 46.7212L45.1345 46.1847ZM46.9682 47.1427L49.7608 48.5509C50.1268 48.2331 50.4298 47.8605 50.6566 47.4492C50.7724 47.1715 50.7724 46.8648 50.6566 46.5871C50.6088 46.4211 50.5164 46.2686 50.3876 46.1432C50.2588 46.0177 50.0978 45.9234 49.9189 45.8686C49.4814 45.7343 49.0075 45.7343 48.57 45.8686C48.2125 45.9544 47.88 46.1103 47.596 46.3255C47.312 46.5406 47.0833 46.8098 46.926 47.1139L46.9682 47.1427ZM50.9306 50.9744C50.9995 50.8686 51.0426 50.7506 51.0571 50.6283C51.0717 50.506 51.0573 50.3823 51.0149 50.2656C50.9503 50.0764 50.8344 49.9051 50.6777 49.7674C50.4094 49.5617 50.1159 49.385 49.803 49.2406C49.4835 49.5278 49.2039 49.8495 48.9705 50.1985C48.8431 50.4161 48.8129 50.67 48.8862 50.9074C48.9196 51.017 48.9782 51.1189 49.0581 51.2064C49.1381 51.2939 49.2375 51.3651 49.3499 51.4151C49.6181 51.507 49.9141 51.507 50.1824 51.4151C50.4689 51.3456 50.719 51.1861 50.8884 50.9648L50.9306 50.9744Z" fill="#303030"/>
<path d="M32.2883 53.5705L32.4359 46.865H33.1841L33.0682 52.2294L36.061 47.7654H36.4299L39.2331 52.3061L39.3385 46.9704H40.0867L39.9497 53.6759H39.3068L36.2086 48.6659L32.9312 53.5801L32.2883 53.5705Z" fill="#303030"/>
<path d="M28.621 46.5583C29.1029 46.9758 29.4478 47.5068 29.6171 48.092C29.7864 48.6773 29.7736 49.2938 29.58 49.8728C29.4068 50.4656 29.061 51.005 28.5789 51.4342C28.1103 51.8528 27.5228 52.1447 26.8822 52.2772C26.2064 52.4158 25.5029 52.396 24.8378 52.2197C24.1749 52.0725 23.565 51.7723 23.0673 51.348C22.5926 50.9358 22.2533 50.4118 22.0873 49.8344C21.9252 49.2376 21.9371 48.6127 22.122 48.0214C22.3068 47.43 22.658 46.8927 23.1411 46.4625C23.6013 46.0449 24.1763 45.7472 24.8061 45.6004C25.4785 45.4621 26.1784 45.4819 26.84 45.6578C27.5097 45.8121 28.1236 46.1225 28.621 46.5583ZM25.0274 46.223C24.5119 46.3321 24.0408 46.5712 23.668 46.9127C23.2798 47.2642 23.0031 47.7043 22.8671 48.1868C22.7201 48.6662 22.7201 49.173 22.8671 49.6524C22.9914 50.1188 23.258 50.5439 23.6364 50.8786C24.0332 51.2313 24.5231 51.4853 25.0591 51.6162C25.595 51.7403 26.1566 51.7403 26.6925 51.6162C27.2084 51.5009 27.6813 51.2628 28.0625 50.9265C28.4486 50.5736 28.725 50.134 28.8634 49.6524C29.0107 49.1698 29.0107 48.6598 28.8634 48.1772C28.7285 47.7125 28.4592 47.2892 28.0835 46.951C27.6847 46.5979 27.1903 46.3467 26.6503 46.223C26.1193 46.0896 25.5584 46.0896 25.0274 46.223Z" fill="#303030"/>
<path d="M17.05 41.7688L17.3345 44.4031C17.5153 44.4733 17.6912 44.5532 17.8614 44.6426L19.5792 45.543L20.7384 43.6846L21.4234 44.0391L17.735 49.8154L15.3322 48.5605C14.6221 48.2362 14.0618 47.693 13.7515 47.0278C13.6369 46.7282 13.5983 46.4089 13.6384 46.0937C13.6786 45.7786 13.7965 45.4757 13.9833 45.2078C14.2283 44.7879 14.6166 44.4518 15.0899 44.2498C15.5705 44.0688 16.1021 44.0319 16.6074 44.1445L16.3018 41.3281L17.05 41.7688ZM15.8486 44.7959C15.6011 44.8523 15.3687 44.9536 15.1652 45.0936C14.9618 45.2336 14.7915 45.4095 14.6646 45.6107C14.5376 45.8119 14.4567 46.0344 14.4265 46.2647C14.3964 46.495 14.4177 46.7285 14.4892 46.9512C14.7362 47.447 15.1644 47.8498 15.7011 48.0912L17.3977 48.982L19.242 46.1082L17.5453 45.2173C17.0576 44.8852 16.4572 44.7191 15.8486 44.748V44.7959Z" fill="#303030"/>
<path d="M10.8113 37.276L11.2855 36.845L14.9212 40.2456L9.65208 44.9204L6.14282 41.6251L6.62758 41.194L9.60992 43.9816L11.412 42.3244L8.79848 39.8529L9.30431 39.4122L11.9705 41.9029L13.9306 40.169L10.8113 37.276Z" fill="#303030"/>
<path d="M2.98133 33.5112L3.23425 32.1892L3.72955 32.2563L3.44502 33.6165L4.84661 33.1471L5.01523 33.5686L3.59256 34.0093L4.76231 34.9097L4.42508 35.2546L3.29748 34.2967L3.03403 35.6569L2.52819 35.5707L2.82326 34.2105L1.41113 34.6703L1.25305 34.2967L2.66518 33.8464L1.49543 32.9556L1.8432 32.6107L2.98133 33.5112Z" fill="#303030"/>
</g>
<defs>
<clipPath id="clip0_1_6">
<rect width="72.6405" height="53.1272" fill="white" transform="translate(0.873657 0.577393)"/>
</clipPath>
</defs>
</svg>
